<?xml version="1.0" encoding="UTF-8" standalone="no"?>
<!DOCTYPE svg PUBLIC "-//W3C//DTD SVG 1.1//EN" "http://www.w3.org/Graphics/SVG/1.1/DTD/svg11.dtd">
<svg width="100%" height="100%" viewBox="0 0 512 512" version="1.1" xmlns="http://www.w3.org/2000/svg" xmlns:xlink="http://www.w3.org/1999/xlink" xml:space="preserve" xmlns:serif="http://www.serif.com/" style="fill-rule:evenodd;clip-rule:evenodd;stroke-linejoin:round;stroke-miterlimit:2;">
    <g transform="matrix(1,0,0,1,64,0)">
        <path d="M374.6,310.6L214.6,470.6C208.4,476.9 200.2,480 192,480C183.8,480 175.62,476.875 169.38,470.625L9.38,310.625C-3.12,298.125 -3.12,277.875 9.38,265.375C21.88,252.875 42.13,252.875 54.63,265.375L160,370.8L160,64C160,46.31 174.33,32.9 191.1,32.9C207.87,32.9 224,46.31 224,64L224,370.8L329.4,265.4C341.9,252.9 362.15,252.9 374.65,265.4C387.15,277.9 387.1,298.1 374.6,310.6Z" style="fill-rule:nonzero;"/>
    </g>
    <g transform="matrix(1.97514,-1.97514,1.97514,1.97514,-564.93,-160.882)">
        <path d="M192.333,284.333L206.667,298.667L192.333,313L206.667,327.333L192.333,341.667L178,327.333L163.667,341.667L149.333,327.333L163.667,313L149.333,298.667L163.667,284.333L178,298.667L192.333,284.333Z"/>
    </g>
</svg>
