<?xml version="1.0" encoding="UTF-8" standalone="no"?>
<!DOCTYPE svg PUBLIC "-//W3C//DTD SVG 1.1//EN" "http://www.w3.org/Graphics/SVG/1.1/DTD/svg11.dtd">
<svg width="100%" height="100%" viewBox="0 0 101 105" version="1.1" xmlns="http://www.w3.org/2000/svg" xmlns:xlink="http://www.w3.org/1999/xlink" xml:space="preserve" xmlns:serif="http://www.serif.com/" style="fill-rule:evenodd;clip-rule:evenodd;stroke-linejoin:round;stroke-miterlimit:2;">
    <g transform="matrix(1,0,0,1,-2502.88,-1226.4)">
        <g transform="matrix(2.08333,0,0,10.1667,-170.833,-42367.8)">
            <path d="M1331.62,4293.58L1331.48,4293.58L1331.48,4293.61L1331.34,4293.61C1331.24,4293.59 1331.17,4293.58 1331.12,4293.58L1331.12,4293.56L1330.98,4293.56L1330.98,4293.53L1330.83,4293.53L1330.69,4293.51L1330.4,4293.51L1330.4,4293.48L1330.18,4293.48L1330.18,4293.45L1329.9,4293.45L1329.9,4293.43L1328.89,4293.43L1328.89,4293.4L1328.38,4293.4L1328.38,4293.37L1328.24,4293.37C1328.14,4293.37 1328.1,4293.37 1328.1,4293.36C1328.1,4293.35 1328.07,4293.34 1328.02,4293.34L1327.74,4293.34C1327.64,4293.34 1327.54,4293.33 1327.45,4293.31C1327.35,4293.29 1327.2,4293.29 1326.98,4293.31C1326.76,4293.33 1326.63,4293.35 1326.58,4293.37L1326.15,4293.37L1326.15,4293.4L1325.79,4293.4L1325.79,4293.43L1325.07,4293.43L1325.07,4293.45L1324.64,4293.45L1324.64,4293.48L1324.28,4293.48L1324.28,4293.51L1323.99,4293.51L1323.99,4293.53L1323.7,4293.53L1323.7,4293.56L1323.63,4293.56L1323.63,4293.58L1323.34,4293.58L1323.34,4293.61L1323.2,4293.61L1323.2,4293.64L1322.91,4293.64L1321.83,4293.73L1321.83,4293.74L1321.4,4293.74L1321.4,4293.77L1321.33,4293.77C1321.23,4293.8 1321.16,4293.82 1321.11,4293.82L1320.9,4293.82L1320.9,4293.84L1320.75,4293.84C1320.66,4293.84 1320.6,4293.85 1320.57,4293.86C1320.55,4293.87 1320.49,4293.87 1320.39,4293.87L1320.25,4293.87L1320.25,4293.9L1320.1,4293.9C1320.01,4293.91 1319.94,4293.92 1319.89,4293.92L1319.74,4293.92L1319.74,4293.95L1319.6,4293.95C1319.41,4293.95 1319.26,4293.96 1319.17,4293.98L1319.1,4293.98L1319.1,4294.01L1318.45,4294.01L1318.45,4294.04L1318.23,4294.04L1318.23,4294.05L1317.94,4294.05L1317.94,4294.08L1317.8,4294.08C1317.7,4294.08 1317.63,4294.09 1317.58,4294.11L1317.3,4294.11L1317.3,4294.14C1317.2,4294.14 1317.15,4294.14 1317.15,4294.15C1317.15,4294.16 1317.1,4294.17 1317.01,4294.17L1317.01,4294.2L1316.86,4294.2C1316.82,4294.2 1316.79,4294.2 1316.79,4294.21L1316.5,4294.21C1316.5,4294.23 1316.46,4294.24 1316.36,4294.24L1316.36,4294.27L1316.14,4294.27L1316.14,4294.3L1315.86,4294.3L1315.86,4294.33L1315.71,4294.33L1315.57,4294.35L1315.42,4294.35C1315.38,4294.37 1315.3,4294.38 1315.21,4294.38C1315.11,4294.38 1314.99,4294.39 1314.85,4294.4L1314.7,4294.4L1314.7,4294.43L1314.49,4294.43C1314.44,4294.45 1314.42,4294.46 1314.42,4294.46L1314.34,4294.46C1314.3,4294.48 1314.27,4294.49 1314.27,4294.49L1314.27,4294.51L1314.2,4294.51C1314.1,4294.51 1314.06,4294.51 1314.06,4294.52L1313.91,4294.52L1313.91,4294.55L1313.7,4294.55L1313.7,4294.58L1313.55,4294.58C1313.46,4294.6 1313.36,4294.61 1313.26,4294.61L1313.26,4294.64L1313.12,4294.64C1313.07,4294.64 1313.05,4294.66 1313.05,4294.69C1312.81,4294.72 1312.6,4294.74 1312.44,4294.77C1312.27,4294.8 1312.11,4294.83 1311.97,4294.85C1311.87,4294.87 1311.81,4294.88 1311.79,4294.89C1311.76,4294.9 1311.7,4294.92 1311.61,4294.94L1311.54,4294.94C1311.44,4294.94 1311.39,4294.95 1311.39,4294.98L1311.25,4294.98C1311.15,4294.98 1311.1,4294.98 1311.1,4294.99C1311.1,4295.01 1311.06,4295.01 1310.96,4295.01L1310.82,4295.01C1310.82,4295.04 1310.74,4295.07 1310.6,4295.1C1310.6,4295.11 1310.58,4295.12 1310.53,4295.15C1310.48,4295.18 1310.46,4295.2 1310.46,4295.22L1310.46,4295.27L1310.31,4295.27L1310.31,4295.41L1310.17,4295.41L1310.17,4295.7L1310.1,4295.7L1310.1,4295.78L1309.95,4295.78L1309.95,4295.84L1309.81,4295.84L1309.81,4295.93L1309.66,4295.93L1309.66,4296.06L1309.52,4296.06L1309.52,4296.12L1309.38,4296.12L1309.38,4296.15L1309.3,4296.18C1309.3,4296.19 1309.28,4296.2 1309.23,4296.2C1309.18,4296.2 1309.16,4296.21 1309.16,4296.22L1309.16,4296.25L1309.02,4296.25C1308.92,4296.27 1308.88,4296.28 1308.91,4296.28C1308.93,4296.28 1308.87,4296.28 1308.73,4296.28C1308.58,4296.32 1308.34,4296.32 1308.01,4296.28L1308.01,4296.25L1307.86,4296.25L1307.86,4295.75C1307.82,4295.71 1307.79,4295.67 1307.79,4295.63C1307.79,4295.59 1307.74,4295.55 1307.65,4295.51L1307.65,4295.38L1307.5,4295.38L1307.5,4295.32C1307.41,4295.3 1307.36,4295.27 1307.36,4295.25C1307.26,4295.22 1307.24,4295.18 1307.29,4295.15C1307.34,4295.12 1307.31,4295.09 1307.22,4295.07C1307.12,4295.05 1307.06,4295.04 1307.04,4295.04C1307.01,4295.04 1306.95,4295.03 1306.86,4295.01C1306.76,4294.99 1306.66,4294.98 1306.57,4294.97L1306.42,4294.97C1306.42,4294.95 1306.4,4294.93 1306.35,4294.91L1306.21,4294.91C1306.21,4294.89 1306.11,4294.88 1305.92,4294.88L1305.92,4294.85L1305.63,4294.85L1305.63,4294.82L1305.56,4294.82L1305.56,4294.8L1305.06,4294.8L1305.06,4294.77L1304.41,4294.77C1304.02,4294.73 1303.71,4294.72 1303.47,4294.72L1303.11,4294.72L1303.11,4294.69L1302.68,4294.69C1302.3,4294.68 1301.89,4294.66 1301.46,4294.63C1301.02,4294.61 1300.59,4294.58 1300.16,4294.55C1300.16,4294.53 1300.06,4294.52 1299.87,4294.52L1299.87,4294.51L1299.58,4294.51L1299.58,4294.46L1299.37,4294.46L1299.37,4294.43L1299.08,4294.43L1299.08,4294.4L1298.86,4294.4L1298.86,4294.38L1298.72,4294.38L1298.72,4294.36C1298.67,4294.35 1298.62,4294.35 1298.58,4294.35L1298.36,4294.35L1298.36,4294.33L1298.22,4294.33L1298.22,4294.3L1298,4294.3L1298,4294.27L1297.86,4294.27L1297.71,4294.24L1297.57,4294.24C1297.42,4294.21 1297.3,4294.18 1297.21,4294.14L1297.06,4294.14L1297.06,4294.11L1296.78,4294.11C1296.73,4294.09 1296.7,4294.08 1296.7,4294.08L1296.63,4294.08L1296.56,4294.05L1296.42,4294.05C1296.37,4294.04 1296.32,4294.04 1296.27,4294.04C1296.03,4293.99 1295.82,4293.94 1295.62,4293.91C1295.43,4293.88 1295.22,4293.84 1294.98,4293.82L1294.98,4293.77C1294.88,4293.74 1294.76,4293.73 1294.62,4293.73L1294.62,4293.7C1294.62,4293.68 1294.59,4293.67 1294.54,4293.67C1294.5,4293.67 1294.47,4293.66 1294.47,4293.64C1294.33,4293.61 1294.26,4293.59 1294.26,4293.58L1294.26,4293.56C1294.16,4293.56 1294.06,4293.55 1293.97,4293.53C1293.97,4293.52 1293.94,4293.51 1293.9,4293.51C1293.85,4293.51 1293.82,4293.49 1293.82,4293.48L1293.82,4293.45C1293.73,4293.45 1293.66,4293.44 1293.61,4293.44C1293.56,4293.43 1293.51,4293.43 1293.46,4293.43L1293.46,4293.4C1293.32,4293.35 1293.18,4293.32 1293.03,4293.29C1292.89,4293.27 1292.72,4293.24 1292.53,4293.21L1292.53,4293.18C1292.38,4293.16 1292.24,4293.13 1292.1,4293.1C1291.95,4293.07 1291.76,4293.02 1291.52,4292.97C1291.42,4292.96 1291.33,4292.95 1291.23,4292.93L1291.16,4292.93C1291.06,4292.91 1291.02,4292.9 1291.02,4292.89C1291.02,4292.88 1290.97,4292.86 1290.87,4292.84L1290.73,4292.84L1290.58,4292.81L1290.51,4292.81L1290.51,4292.8L1290.37,4292.8C1290.22,4292.77 1290.08,4292.74 1289.94,4292.71C1289.79,4292.68 1289.67,4292.64 1289.58,4292.61C1289.24,4292.56 1288.89,4292.54 1288.53,4292.57C1288.17,4292.59 1287.8,4292.61 1287.42,4292.61C1286.89,4292.62 1286.44,4292.62 1286.08,4292.6C1285.72,4292.57 1285.35,4292.55 1284.97,4292.52C1284.78,4292.52 1284.63,4292.51 1284.54,4292.5L1284.03,4292.5L1284.03,4292.47C1283.89,4292.45 1283.77,4292.45 1283.67,4292.47C1283.58,4292.48 1283.48,4292.47 1283.38,4292.44C1283.48,4292.44 1283.55,4292.44 1283.6,4292.42C1283.65,4292.41 1283.7,4292.4 1283.74,4292.4L1283.89,4292.4L1283.89,4292.37L1284.03,4292.37L1284.18,4292.34C1284.22,4292.33 1284.27,4292.32 1284.32,4292.32L1284.39,4292.31C1284.39,4292.3 1284.4,4292.29 1284.43,4292.29C1284.45,4292.28 1284.46,4292.27 1284.46,4292.27L1284.68,4292.27L1284.68,4292.24L1284.97,4292.24L1284.97,4292.21C1285.06,4292.21 1285.16,4292.2 1285.26,4292.2C1285.35,4292.19 1285.45,4292.19 1285.54,4292.19L1285.54,4292.16L1285.83,4292.16L1285.83,4292.13L1285.98,4292.13L1286.05,4292.1C1286.14,4292.1 1286.19,4292.09 1286.19,4292.07L1286.34,4292.07L1286.34,4292.06C1286.38,4292.05 1286.43,4292.04 1286.48,4292.04L1286.62,4292.04C1286.62,4292.03 1286.67,4292.03 1286.77,4292.03L1286.84,4292L1286.98,4292L1286.98,4291.97C1287.08,4291.97 1287.18,4291.96 1287.27,4291.94C1287.37,4291.94 1287.44,4291.93 1287.49,4291.91L1287.63,4291.91C1287.78,4291.9 1288.02,4291.89 1288.35,4291.88C1288.69,4291.87 1288.93,4291.88 1289.07,4291.9L1289.29,4291.9L1289.29,4291.91L1289.58,4291.91C1289.58,4291.92 1289.6,4291.93 1289.65,4291.93C1289.7,4291.94 1289.74,4291.94 1289.79,4291.94L1289.94,4291.94C1289.94,4291.96 1289.96,4291.97 1290.01,4291.97C1290.06,4291.97 1290.08,4291.98 1290.08,4292L1290.22,4292L1290.37,4292.03L1290.51,4292.03C1290.51,4292.04 1290.54,4292.04 1290.58,4292.04L1291.02,4292.13L1291.02,4292.16L1291.52,4292.27L1291.52,4292.3C1291.62,4292.32 1291.72,4292.33 1291.84,4292.33C1291.96,4292.34 1292.05,4292.35 1292.1,4292.37L1292.1,4292.4C1292.24,4292.45 1292.43,4292.48 1292.67,4292.5L1292.67,4292.52C1292.91,4292.57 1293.14,4292.63 1293.36,4292.69C1293.57,4292.74 1293.82,4292.79 1294.11,4292.84C1294.21,4292.86 1294.27,4292.88 1294.29,4292.89C1294.32,4292.9 1294.38,4292.91 1294.47,4292.93C1294.71,4292.96 1294.88,4293 1294.98,4293.06L1295.19,4293.06C1295.34,4293.11 1295.48,4293.14 1295.62,4293.15L1295.77,4293.15L1295.84,4293.18L1295.98,4293.18C1295.98,4293.2 1296.01,4293.21 1296.06,4293.21C1296.1,4293.21 1296.13,4293.22 1296.13,4293.24L1296.27,4293.24L1296.42,4293.27L1296.49,4293.27L1296.56,4293.28L1296.63,4293.28L1296.63,4293.31L1296.78,4293.31C1296.87,4293.32 1296.92,4293.33 1296.92,4293.33L1296.92,4293.34L1297.06,4293.34C1297.16,4293.36 1297.21,4293.38 1297.21,4293.4L1297.28,4293.4L1297.28,4293.43L1297.57,4293.43C1297.57,4293.44 1297.59,4293.45 1297.64,4293.45C1297.69,4293.45 1297.71,4293.46 1297.71,4293.48L1297.86,4293.48L1298,4293.51L1298.07,4293.51C1298.07,4293.52 1298.12,4293.53 1298.22,4293.53L1298.36,4293.53C1298.36,4293.55 1298.43,4293.57 1298.58,4293.58C1298.67,4293.59 1298.72,4293.59 1298.72,4293.59L1298.72,4293.61L1298.86,4293.61L1298.86,4293.62C1298.86,4293.63 1298.89,4293.64 1298.94,4293.64L1299.08,4293.64L1299.08,4293.67C1299.18,4293.67 1299.33,4293.68 1299.55,4293.7C1299.76,4293.72 1299.92,4293.72 1300.02,4293.7L1300.66,4293.7L1300.66,4293.73L1300.81,4293.73C1300.95,4293.73 1301.07,4293.73 1301.17,4293.74L1301.31,4293.74C1301.41,4293.76 1301.5,4293.77 1301.6,4293.78C1301.7,4293.78 1301.79,4293.8 1301.89,4293.82L1301.89,4293.84L1302.18,4293.84L1302.18,4293.87L1302.46,4293.87L1302.61,4293.9C1302.66,4293.91 1302.73,4293.92 1302.82,4293.92C1303.06,4293.94 1303.29,4293.94 1303.51,4293.93C1303.72,4293.92 1303.9,4293.91 1304.05,4293.9L1304.55,4293.9C1305.27,4293.84 1305.99,4293.82 1306.71,4293.82L1306.71,4293.67C1306.71,4293.62 1306.76,4293.57 1306.86,4293.53L1306.86,4292.71C1307,4292.67 1307.07,4292.62 1307.07,4292.57C1307.17,4292.57 1307.22,4292.57 1307.22,4292.56L1307.22,4292.53C1307.22,4292.53 1307.26,4292.52 1307.36,4292.5C1307.46,4292.48 1307.46,4292.45 1307.36,4292.41C1307.26,4292.36 1307.22,4292.33 1307.22,4292.32L1307.22,4292.1C1307.12,4292.05 1307.07,4291.97 1307.07,4291.84L1307,4291.81L1306.86,4291.81C1306.76,4291.81 1306.71,4291.8 1306.71,4291.79L1306.71,4291.78L1306.57,4291.78L1306.57,4291.75L1306.42,4291.75L1306.35,4291.73L1306.21,4291.73L1306.06,4291.69L1305.78,4291.69L1305.78,4291.66C1305.68,4291.66 1305.63,4291.66 1305.63,4291.65C1305.63,4291.64 1305.61,4291.63 1305.56,4291.63L1305.56,4291.6C1304.98,4291.56 1304.46,4291.52 1303.98,4291.48C1303.5,4291.44 1303.04,4291.4 1302.61,4291.37L1302.61,4291.35C1302.56,4291.34 1302.51,4291.34 1302.46,4291.34L1302.32,4291.34L1302.32,4291.31L1302.03,4291.31L1302.03,4291.28C1301.94,4291.28 1301.84,4291.27 1301.74,4291.26L1301.74,4291.23L1301.46,4291.23L1301.46,4291.22C1301.41,4291.21 1301.36,4291.2 1301.31,4291.2L1301.17,4291.2L1301.17,4291.17L1301.02,4291.17C1300.98,4291.15 1300.9,4291.14 1300.81,4291.13L1300.66,4291.13L1300.66,4291.1L1300.52,4291.1L1300.52,4291.07L1300.3,4291.07L1300.3,4291.03L1300.16,4291.03L1300.16,4291L1299.87,4291L1299.73,4290.97L1299.58,4290.97L1299.58,4290.95L1299.51,4290.95L1299.51,4290.92C1299.37,4290.92 1299.26,4290.92 1299.19,4290.91C1299.12,4290.9 1299.03,4290.89 1298.94,4290.89C1298.89,4290.89 1298.86,4290.89 1298.86,4290.88L1298.86,4290.86L1298.72,4290.86C1298.72,4290.84 1298.67,4290.83 1298.58,4290.83L1298.58,4290.81L1298.22,4290.81L1298.22,4290.79L1298.07,4290.79C1298.02,4290.77 1297.98,4290.76 1297.93,4290.75C1297.88,4290.74 1297.86,4290.72 1297.86,4290.7L1297.71,4290.7C1297.47,4290.68 1297.3,4290.65 1297.21,4290.6L1297.06,4290.6C1297.02,4290.58 1296.99,4290.57 1296.99,4290.57L1296.92,4290.57C1296.92,4290.55 1296.9,4290.54 1296.85,4290.54C1296.8,4290.54 1296.73,4290.53 1296.63,4290.51L1296.63,4290.49L1296.56,4290.49L1296.56,4290.47L1296.42,4290.44C1296.42,4290.42 1296.37,4290.41 1296.27,4290.41L1296.27,4290.38L1296.13,4290.33L1296.13,4290.32C1296.03,4290.32 1295.98,4290.31 1295.98,4290.3C1295.98,4290.29 1295.94,4290.29 1295.84,4290.29L1295.84,4290.26L1295.77,4290.23L1295.77,4290.2C1295.67,4290.19 1295.6,4290.18 1295.55,4290.17C1295.5,4290.16 1295.43,4290.16 1295.34,4290.16C1295.14,4290.11 1295.01,4290.07 1294.94,4290.05C1294.87,4290.02 1294.76,4289.99 1294.62,4289.96C1294.47,4289.93 1294.3,4289.91 1294.11,4289.89L1294.11,4289.86L1293.97,4289.86L1293.97,4289.83C1293.92,4289.81 1293.9,4289.8 1293.9,4289.8L1293.82,4289.8L1293.82,4289.77C1293.73,4289.77 1293.68,4289.76 1293.68,4289.74L1293.54,4289.73L1293.54,4289.7L1293.46,4289.7L1293.46,4289.62L1293.32,4289.62L1293.32,4289.57L1293.18,4289.57L1293.18,4289.55L1293.03,4289.52L1293.03,4289.49L1292.89,4289.49L1292.89,4289.46L1292.82,4289.43C1292.72,4289.42 1292.67,4289.41 1292.67,4289.38C1292.67,4289.36 1292.62,4289.33 1292.53,4289.3L1292.38,4289.3L1292.38,4289.26C1292.29,4289.26 1292.24,4289.25 1292.24,4289.24L1292.24,4289.2L1292.1,4289.2C1292.1,4289.18 1292.08,4289.17 1292.06,4289.17C1292.04,4289.17 1292.02,4289.16 1292.02,4289.14L1292.02,4289.12L1291.88,4289.12L1291.88,4289.06L1291.66,4289.06L1291.66,4289.01C1291.57,4289.01 1291.5,4289 1291.45,4288.98C1291.4,4288.97 1291.33,4288.96 1291.23,4288.95L1291.23,4288.92L1291.16,4288.92C1291.06,4288.9 1290.99,4288.89 1290.94,4288.89L1290.87,4288.89C1290.68,4288.87 1290.52,4288.86 1290.4,4288.86C1290.28,4288.87 1290.18,4288.85 1290.08,4288.8C1289.98,4288.79 1289.94,4288.77 1289.94,4288.75L1289.94,4288.73L1291.02,4288.73L1291.02,4288.69L1291.16,4288.69C1291.26,4288.68 1291.48,4288.67 1291.84,4288.68C1292.2,4288.69 1292.43,4288.69 1292.53,4288.69C1292.72,4288.72 1292.94,4288.73 1293.18,4288.73L1293.18,4288.75L1293.46,4288.75L1293.46,4288.78L1293.54,4288.78C1293.63,4288.79 1293.78,4288.82 1293.97,4288.86C1294.06,4288.87 1294.11,4288.87 1294.11,4288.87L1294.11,4288.89L1294.26,4288.89C1294.35,4288.92 1294.46,4288.94 1294.58,4288.95C1294.7,4288.97 1294.81,4288.99 1294.9,4289.03L1294.9,4289.06L1294.98,4289.06L1294.98,4289.09C1295.12,4289.09 1295.19,4289.11 1295.19,4289.14C1295.29,4289.14 1295.34,4289.16 1295.34,4289.2L1295.48,4289.2C1295.48,4289.24 1295.53,4289.26 1295.62,4289.27L1295.62,4289.28C1295.62,4289.3 1295.67,4289.3 1295.77,4289.3L1295.77,4289.36L1295.84,4289.36L1295.84,4289.39C1295.94,4289.39 1295.98,4289.39 1295.98,4289.4C1295.98,4289.41 1296.03,4289.42 1296.13,4289.42L1296.13,4289.43L1296.56,4289.52L1296.56,4289.55C1296.7,4289.55 1296.78,4289.57 1296.78,4289.6L1296.78,4289.62L1297.06,4289.62C1297.16,4289.64 1297.22,4289.66 1297.24,4289.68C1297.27,4289.7 1297.33,4289.72 1297.42,4289.74L1297.57,4289.74L1297.57,4289.77C1297.71,4289.8 1297.84,4289.83 1297.96,4289.85C1298.08,4289.87 1298.22,4289.89 1298.36,4289.9L1298.36,4289.93L1298.58,4289.93L1298.58,4289.96L1298.72,4289.96L1298.72,4289.99L1298.86,4289.99C1298.91,4290.01 1298.96,4290.02 1299.01,4290.03C1299.06,4290.03 1299.08,4290.05 1299.08,4290.07L1299.22,4290.07C1299.32,4290.08 1299.37,4290.08 1299.37,4290.08L1299.37,4290.1C1299.46,4290.12 1299.54,4290.13 1299.58,4290.13L1299.58,4290.16L1299.73,4290.16L1299.73,4290.19L1300.02,4290.19C1300.02,4290.19 1300.04,4290.2 1300.09,4290.2L1300.16,4290.2C1300.16,4290.22 1300.18,4290.23 1300.23,4290.23C1300.28,4290.23 1300.3,4290.24 1300.3,4290.26L1300.45,4290.26C1300.5,4290.27 1300.52,4290.28 1300.52,4290.29C1300.62,4290.29 1300.71,4290.3 1300.81,4290.32L1300.95,4290.32C1300.95,4290.33 1301.02,4290.33 1301.17,4290.33L1301.17,4290.38L1301.46,4290.38L1301.46,4290.41L1301.89,4290.41L1301.89,4290.44L1302.18,4290.44L1302.18,4290.47L1302.46,4290.47L1302.46,4290.49L1302.61,4290.49C1302.66,4290.51 1302.68,4290.52 1302.68,4290.54C1302.78,4290.54 1302.87,4290.55 1302.97,4290.57L1302.97,4290.6C1303.16,4290.6 1303.28,4290.61 1303.33,4290.63L1303.62,4290.63C1303.86,4290.65 1304.06,4290.65 1304.23,4290.64C1304.4,4290.63 1304.58,4290.63 1304.77,4290.63L1306.21,4290.63L1306.21,4290.6L1306.42,4290.6L1306.86,4290.51C1306.86,4290.5 1306.9,4290.49 1307,4290.49L1307,4290.13C1307.05,4290.11 1307.06,4290.08 1307.04,4290.05C1307.01,4290.02 1307.02,4289.99 1307.07,4289.96L1307.07,4289.86L1307.22,4289.86L1307.22,4289.49L1307.36,4289.49L1307.36,4289.27C1307.17,4289.27 1307,4289.26 1306.86,4289.23C1306.76,4289.23 1306.71,4289.22 1306.71,4289.2L1306.57,4289.2C1306.52,4289.2 1306.4,4289.18 1306.21,4289.14L1306.21,4289.12L1306.14,4289.11C1306.09,4289.11 1306.05,4289.11 1306.03,4289.1C1306,4289.1 1305.97,4289.09 1305.92,4289.09L1305.92,4289.06L1305.78,4289.06L1305.78,4289.01C1305.68,4288.98 1305.63,4288.95 1305.63,4288.92L1305.56,4288.92L1305.56,4288.86L1305.42,4288.86L1305.42,4288.8L1305.27,4288.8L1305.27,4288.62L1305.06,4288.62C1305.06,4288.6 1305.03,4288.57 1304.98,4288.52C1304.94,4288.48 1304.96,4288.45 1305.06,4288.43C1305.06,4288.38 1305.13,4288.34 1305.27,4288.3L1305.27,4288.22L1305.42,4288.22L1305.42,4288.19L1305.56,4288.19L1305.56,4288.18L1305.63,4288.15L1305.63,4288.12L1305.78,4288.12C1305.87,4288.1 1305.92,4288.09 1305.92,4288.07C1305.92,4288.07 1305.97,4288.05 1306.06,4288.03L1306.35,4288.03L1306.35,4288.02L1306.42,4288.02C1306.71,4288 1307.02,4287.98 1307.36,4287.97C1307.7,4287.96 1308.06,4287.96 1308.44,4287.96C1308.68,4287.96 1308.91,4287.96 1309.12,4287.97C1309.34,4287.98 1309.57,4287.99 1309.81,4287.99L1309.95,4287.99L1309.95,4288.02L1311.1,4288.02L1311.1,4288.03C1311.2,4288.03 1311.25,4288.04 1311.25,4288.05C1311.25,4288.06 1311.3,4288.06 1311.39,4288.06L1311.39,4288.09C1311.49,4288.09 1311.58,4288.1 1311.68,4288.11C1311.78,4288.11 1311.87,4288.12 1311.97,4288.12L1312.26,4288.18L1312.4,4288.18L1312.4,4288.19C1312.4,4288.2 1312.47,4288.22 1312.62,4288.25L1312.62,4288.33L1312.76,4288.33L1312.76,4288.37L1312.9,4288.37L1312.9,4288.43L1313.05,4288.43C1313.05,4288.46 1313.02,4288.51 1312.98,4288.57C1312.93,4288.63 1312.9,4288.68 1312.9,4288.69L1312.9,4288.78L1312.76,4288.78L1312.76,4288.83L1312.62,4288.83L1312.62,4288.87C1312.62,4288.88 1312.57,4288.89 1312.47,4288.89L1312.47,4288.92L1312.4,4288.92L1312.4,4288.96L1312.11,4288.96C1312.02,4288.98 1311.96,4289 1311.93,4289.01C1311.91,4289.03 1311.85,4289.04 1311.75,4289.06C1311.66,4289.08 1311.6,4289.1 1311.57,4289.11C1311.55,4289.12 1311.49,4289.13 1311.39,4289.14L1311.39,4289.55C1311.3,4289.56 1311.22,4289.6 1311.18,4289.66C1311.13,4289.73 1311.15,4289.78 1311.25,4289.83L1311.39,4289.83C1311.39,4289.87 1311.37,4289.92 1311.32,4289.97C1311.27,4290.02 1311.25,4290.07 1311.25,4290.1L1311.25,4290.16L1311.1,4290.16L1311.1,4290.19C1311.1,4290.2 1311.08,4290.23 1311.03,4290.24C1310.98,4290.26 1310.96,4290.29 1310.96,4290.32C1310.96,4290.33 1310.94,4290.34 1310.89,4290.36C1310.84,4290.38 1310.82,4290.41 1310.82,4290.44L1310.96,4290.47L1311.1,4290.47C1311.1,4290.48 1311.13,4290.49 1311.18,4290.49C1311.22,4290.49 1311.25,4290.5 1311.25,4290.51L1311.39,4290.51L1311.39,4290.54L1311.75,4290.54L1311.75,4290.57L1311.97,4290.57C1312.06,4290.59 1312.21,4290.6 1312.4,4290.6L1312.4,4290.63L1312.47,4290.63C1312.66,4290.63 1312.86,4290.64 1313.05,4290.66L1313.7,4290.66C1314.61,4290.66 1315.33,4290.63 1315.86,4290.57L1316.14,4290.57L1316.14,4290.54L1316.65,4290.54L1316.65,4290.51L1317.01,4290.51L1317.01,4290.49L1317.08,4290.49C1317.13,4290.49 1317.2,4290.48 1317.3,4290.47L1317.44,4290.47L1317.44,4290.44L1317.8,4290.44L1317.8,4290.41L1318.09,4290.41L1318.09,4290.38L1318.3,4290.38L1318.3,4290.33L1318.45,4290.33C1318.59,4290.33 1318.71,4290.33 1318.81,4290.32L1318.95,4290.32C1318.95,4290.3 1318.98,4290.29 1319.02,4290.29C1319.07,4290.29 1319.1,4290.28 1319.1,4290.26L1319.17,4290.26C1319.17,4290.24 1319.19,4290.23 1319.24,4290.23L1319.31,4290.23L1319.31,4290.2C1319.41,4290.2 1319.46,4290.2 1319.46,4290.19C1319.46,4290.19 1319.5,4290.19 1319.6,4290.19L1319.6,4290.16L1319.74,4290.16L1319.74,4290.13L1319.89,4290.1L1319.89,4290.07L1319.96,4290.07L1319.96,4290.02C1320.06,4290.02 1320.1,4290.01 1320.1,4289.99L1320.1,4289.96L1320.25,4289.96C1320.25,4289.94 1320.3,4289.93 1320.39,4289.9C1320.39,4289.9 1320.42,4289.89 1320.46,4289.88C1320.46,4289.87 1320.49,4289.86 1320.54,4289.86L1320.54,4289.8L1320.61,4289.8L1320.61,4289.74L1320.75,4289.74L1320.75,4289.73L1320.9,4289.73L1320.9,4289.62L1321.04,4289.62L1321.04,4289.55L1321.18,4289.55L1321.18,4289.46L1321.33,4289.46L1321.33,4289.36L1321.4,4289.36L1321.4,4289.27C1321.5,4289.27 1321.54,4289.26 1321.54,4289.23L1321.69,4289.23L1321.69,4289.17L1321.83,4289.17C1321.83,4289.15 1321.87,4289.14 1321.94,4289.13C1322.01,4289.12 1322.05,4289.11 1322.05,4289.09L1322.19,4289.06L1322.19,4289.03C1322.29,4289.02 1322.37,4289 1322.44,4288.98C1322.52,4288.97 1322.6,4288.96 1322.7,4288.95L1322.7,4288.92C1322.74,4288.92 1322.86,4288.9 1323.06,4288.86L1323.06,4288.83L1323.13,4288.83C1323.18,4288.82 1323.2,4288.81 1323.2,4288.8L1324.5,4288.8L1324.5,4288.78C1324.69,4288.78 1324.83,4288.79 1324.93,4288.8C1325.12,4288.79 1325.36,4288.78 1325.65,4288.78L1326.44,4288.78C1326.63,4288.78 1326.78,4288.78 1326.87,4288.77C1326.97,4288.76 1327.09,4288.76 1327.23,4288.78L1327.45,4288.78L1327.45,4288.8L1327.59,4288.8C1327.74,4288.8 1327.88,4288.83 1328.02,4288.89L1327.88,4288.89C1327.88,4288.92 1327.8,4288.94 1327.63,4288.95C1327.46,4288.97 1327.33,4288.98 1327.23,4289.01L1327.23,4289.03L1326.94,4289.03L1326.94,4289.06L1326.58,4289.06L1326.58,4289.09C1326.39,4289.09 1326.25,4289.1 1326.15,4289.12L1326.01,4289.12L1326.01,4289.14L1325.79,4289.14L1325.65,4289.17L1325.5,4289.17L1325.5,4289.18C1325.5,4289.19 1325.43,4289.2 1325.29,4289.2L1325.29,4289.23L1325.07,4289.23L1325.07,4289.26L1324.93,4289.26C1324.83,4289.27 1324.78,4289.28 1324.78,4289.3L1324.64,4289.3L1324.64,4289.33C1324.54,4289.34 1324.5,4289.34 1324.5,4289.34L1324.5,4289.36L1324.35,4289.39C1324.35,4289.41 1324.33,4289.42 1324.28,4289.42L1324.28,4289.49L1324.14,4289.49L1324.14,4289.52C1324.04,4289.54 1323.99,4289.57 1323.99,4289.6L1323.85,4289.6L1323.85,4289.67C1323.85,4289.71 1323.8,4289.73 1323.7,4289.74L1323.7,4289.77L1323.63,4289.77L1323.63,4289.86L1323.49,4289.86L1323.49,4289.89C1323.39,4289.9 1323.34,4289.93 1323.34,4289.96L1323.2,4289.96L1323.2,4290.02L1323.06,4290.02L1323.06,4290.07L1322.91,4290.07C1322.91,4290.15 1322.89,4290.19 1322.84,4290.2C1322.84,4290.24 1322.79,4290.26 1322.7,4290.26L1322.7,4290.32L1322.41,4290.32L1322.41,4290.33C1322.31,4290.35 1322.25,4290.37 1322.23,4290.38C1322.2,4290.4 1322.14,4290.42 1322.05,4290.44C1321.95,4290.47 1321.87,4290.48 1321.8,4290.49C1321.72,4290.49 1321.64,4290.5 1321.54,4290.51L1321.54,4290.54L1321.4,4290.57L1321.33,4290.6L1321.18,4290.6C1321.18,4290.62 1321.16,4290.63 1321.11,4290.63C1321.06,4290.63 1321.04,4290.64 1321.04,4290.66L1320.9,4290.66L1320.75,4290.67L1320.61,4290.67C1320.61,4290.69 1320.58,4290.71 1320.54,4290.73L1320.39,4290.73L1320.39,4290.76L1320.1,4290.76C1320.06,4290.78 1320.03,4290.79 1320.03,4290.79L1319.89,4290.79L1319.89,4290.81L1319.74,4290.81L1319.74,4290.83C1319.55,4290.83 1319.46,4290.84 1319.46,4290.86L1319.31,4290.89L1319.17,4290.89L1319.1,4290.92L1318.95,4290.92C1318.95,4290.94 1318.93,4290.95 1318.88,4290.95C1318.83,4290.95 1318.81,4290.96 1318.81,4290.97C1318.42,4291.02 1318.1,4291.07 1317.84,4291.11C1317.57,4291.16 1317.25,4291.2 1316.86,4291.23L1315.14,4291.23L1315.14,4291.26L1314.7,4291.26L1314.7,4291.28L1314.34,4291.28L1314.34,4291.31L1314.2,4291.31C1314.1,4291.32 1314.06,4291.32 1314.06,4291.32L1314.06,4291.34L1313.84,4291.34L1313.84,4291.37L1313.7,4291.37C1313.7,4291.39 1313.67,4291.4 1313.62,4291.4C1313.58,4291.4 1313.55,4291.4 1313.55,4291.43L1313.41,4291.43L1313.34,4291.44C1313.29,4291.45 1313.26,4291.46 1313.26,4291.47L1313.05,4291.47L1313.05,4291.5C1312.86,4291.54 1312.66,4291.56 1312.47,4291.57L1312.47,4291.6C1312.42,4291.6 1312.4,4291.61 1312.4,4291.62C1312.35,4291.63 1312.33,4291.63 1312.33,4291.64C1312.33,4291.64 1312.3,4291.65 1312.26,4291.66L1312.26,4291.69L1312.18,4291.69C1312.18,4291.69 1312.11,4291.7 1311.97,4291.73L1311.97,4291.75L1311.75,4291.78L1311.75,4291.81L1311.68,4291.81C1311.58,4291.81 1311.54,4291.82 1311.54,4291.84L1311.54,4291.87L1311.46,4291.87C1311.42,4291.87 1311.39,4291.88 1311.39,4291.9L1311.39,4291.91C1311.25,4291.93 1311.13,4291.95 1311.03,4291.97C1310.94,4291.99 1310.84,4292.01 1310.74,4292.03L1310.74,4292.04L1310.31,4292.13L1310.31,4293.06L1310.46,4293.06L1310.46,4293.31L1310.6,4293.31L1310.6,4293.48L1310.74,4293.48L1310.74,4293.58C1310.79,4293.66 1310.82,4293.75 1310.82,4293.84C1310.82,4293.94 1310.86,4294.03 1310.96,4294.11C1311.49,4294.13 1311.92,4294.13 1312.26,4294.1C1312.59,4294.08 1312.88,4294.05 1313.12,4294.01C1313.22,4293.99 1313.31,4293.98 1313.41,4293.98L1313.41,4293.95L1313.55,4293.95L1313.62,4293.93C1313.62,4293.92 1313.64,4293.92 1313.66,4293.92C1313.68,4293.92 1313.7,4293.91 1313.7,4293.9L1313.84,4293.9L1313.84,4293.89C1313.84,4293.88 1313.86,4293.87 1313.91,4293.87L1314.06,4293.87L1314.06,4293.84L1314.2,4293.84L1314.2,4293.82C1314.39,4293.82 1314.51,4293.8 1314.56,4293.77L1314.7,4293.74L1315.14,4293.74L1315.14,4293.73L1315.35,4293.73L1315.35,4293.7C1315.5,4293.7 1315.62,4293.69 1315.71,4293.67L1315.86,4293.67L1315.86,4293.64L1316.22,4293.64L1316.22,4293.61L1316.36,4293.61C1316.46,4293.61 1316.53,4293.6 1316.58,4293.59C1316.62,4293.59 1316.65,4293.59 1316.65,4293.58L1316.86,4293.58L1316.86,4293.56L1317.01,4293.56L1317.08,4293.55C1317.13,4293.55 1317.16,4293.55 1317.19,4293.54C1317.21,4293.54 1317.25,4293.53 1317.3,4293.53L1317.58,4293.53L1317.58,4293.51L1317.66,4293.49C1317.7,4293.48 1317.75,4293.48 1317.8,4293.48L1317.94,4293.48L1317.94,4293.45L1318.23,4293.45L1318.23,4293.43C1318.28,4293.43 1318.34,4293.43 1318.41,4293.42C1318.48,4293.41 1318.57,4293.4 1318.66,4293.4L1318.66,4293.37L1318.95,4293.37C1318.95,4293.35 1318.98,4293.34 1319.02,4293.34L1319.17,4293.34L1319.17,4293.31L1319.31,4293.31L1319.31,4293.28L1319.46,4293.28L1319.6,4293.27L1319.89,4293.27L1319.89,4293.24L1319.96,4293.24L1319.96,4293.21L1320.1,4293.21L1320.1,4293.19C1320.15,4293.19 1320.2,4293.18 1320.25,4293.18C1320.34,4293.18 1320.39,4293.18 1320.39,4293.17C1320.39,4293.16 1320.44,4293.15 1320.54,4293.15L1320.61,4293.15L1320.61,4293.14C1320.8,4293.14 1320.94,4293.13 1321.04,4293.11C1321.38,4293.09 1321.74,4293.07 1322.12,4293.04C1322.5,4293.02 1322.86,4292.99 1323.2,4292.97L1323.2,4292.96L1323.63,4292.96L1323.63,4292.93L1323.7,4292.93L1323.85,4292.9L1323.92,4292.9C1323.97,4292.89 1323.99,4292.88 1323.99,4292.87L1324.28,4292.87L1324.28,4292.84L1324.64,4292.84C1324.88,4292.8 1325.11,4292.77 1325.32,4292.74C1325.54,4292.72 1325.82,4292.71 1326.15,4292.71C1326.25,4292.71 1326.34,4292.72 1326.44,4292.74L1326.58,4292.74C1326.58,4292.76 1326.6,4292.77 1326.62,4292.77C1326.64,4292.77 1326.66,4292.78 1326.66,4292.8L1326.8,4292.8L1326.94,4292.81L1327.09,4292.81L1327.09,4292.84L1327.23,4292.84C1327.33,4292.86 1327.41,4292.87 1327.48,4292.87C1327.56,4292.87 1327.64,4292.88 1327.74,4292.9L1327.88,4292.9L1327.88,4292.93L1328.1,4292.93L1328.1,4292.96C1328.19,4292.96 1328.26,4292.96 1328.31,4292.97C1328.36,4292.97 1328.43,4292.97 1328.53,4292.97L1328.74,4293C1328.84,4293 1328.91,4293.01 1328.96,4293.03L1329.03,4293.03C1329.08,4293.04 1329.1,4293.05 1329.1,4293.06L1329.39,4293.06C1329.49,4293.08 1329.57,4293.09 1329.64,4293.1C1329.72,4293.1 1329.8,4293.12 1329.9,4293.14C1330.04,4293.16 1330.17,4293.18 1330.29,4293.21C1330.41,4293.24 1330.54,4293.27 1330.69,4293.31C1330.93,4293.34 1331.1,4293.37 1331.19,4293.4L1331.19,4293.43L1331.34,4293.43L1331.34,4293.51L1331.48,4293.51L1331.62,4293.58ZM1290.73,4295.51C1290.73,4295.49 1290.75,4295.48 1290.8,4295.48C1290.85,4295.48 1290.87,4295.47 1290.87,4295.45L1290.87,4295.44C1290.97,4295.44 1291.02,4295.43 1291.02,4295.42C1291.02,4295.41 1291.06,4295.41 1291.16,4295.41C1291.16,4295.39 1291.17,4295.37 1291.2,4295.35C1291.22,4295.33 1291.23,4295.31 1291.23,4295.29L1291.23,4295.27L1291.38,4295.27L1291.38,4295.25C1291.38,4295.23 1291.42,4295.22 1291.52,4295.22L1291.52,4295.19L1291.66,4295.19L1291.66,4295.11L1291.88,4295.1L1291.88,4295.07L1292.02,4295.07C1292.12,4295.03 1292.19,4295.01 1292.24,4295.01L1292.38,4295.01L1292.38,4294.98L1292.67,4294.98L1292.67,4294.97L1292.89,4294.97L1292.89,4294.94L1293.32,4294.94L1293.32,4294.91L1293.68,4294.91C1293.78,4294.91 1293.9,4294.9 1294.04,4294.89C1294.18,4294.88 1294.28,4294.89 1294.33,4294.91C1294.33,4294.93 1294.35,4294.94 1294.4,4294.94C1294.45,4294.94 1294.47,4294.95 1294.47,4294.97L1294.62,4294.94L1294.62,4294.97L1294.76,4294.97L1294.76,4294.98L1294.9,4294.98L1294.98,4295.01C1295.12,4295.01 1295.19,4295.02 1295.19,4295.04C1295.34,4295.06 1295.44,4295.07 1295.52,4295.08C1295.59,4295.09 1295.67,4295.1 1295.77,4295.11L1295.77,4295.14L1295.84,4295.14L1295.84,4295.19L1296.13,4295.19L1296.13,4295.22L1296.56,4295.22L1296.56,4295.25L1296.78,4295.25L1296.78,4295.27C1296.87,4295.27 1296.92,4295.28 1296.92,4295.28C1296.92,4295.29 1296.97,4295.29 1297.06,4295.29L1297.06,4295.32C1297.06,4295.34 1297.09,4295.36 1297.14,4295.38C1297.18,4295.4 1297.23,4295.41 1297.28,4295.41C1297.28,4295.49 1297.21,4295.55 1297.06,4295.59L1297.06,4295.64L1296.92,4295.64C1296.92,4295.68 1296.87,4295.72 1296.78,4295.75C1296.78,4295.77 1296.75,4295.78 1296.7,4295.79C1296.66,4295.8 1296.63,4295.82 1296.63,4295.84L1296.56,4295.88C1296.46,4295.9 1296.42,4295.91 1296.42,4295.93L1296.13,4295.93L1296.13,4295.95L1295.77,4295.95L1295.77,4295.98L1295.62,4295.98L1295.62,4296.01L1295.48,4296.01C1295.34,4296.01 1295.14,4296.02 1294.9,4296.05C1294.66,4296.07 1294.45,4296.08 1294.26,4296.06L1293.97,4296.06L1293.97,4296.04L1293.68,4296.04C1293.58,4296.04 1293.51,4296.03 1293.46,4296.01L1293.32,4296.01L1293.32,4295.98L1293.03,4295.98L1293.03,4295.95L1292.53,4295.95L1292.53,4295.93L1292.38,4295.93L1292.38,4295.91L1291.88,4295.91L1291.88,4295.88L1291.52,4295.88L1291.52,4295.84L1291.16,4295.84C1291.02,4295.82 1290.92,4295.81 1290.87,4295.81C1290.82,4295.82 1290.73,4295.81 1290.58,4295.78L1290.58,4295.67C1290.58,4295.64 1290.61,4295.62 1290.66,4295.59C1290.7,4295.57 1290.73,4295.54 1290.73,4295.51ZM1305.78,4297.68L1305.78,4297.52L1305.92,4297.52L1305.92,4297.44L1306.06,4297.44L1306.06,4297.41L1306.21,4297.41L1306.21,4297.36C1306.3,4297.34 1306.36,4297.32 1306.39,4297.31C1306.41,4297.3 1306.47,4297.29 1306.57,4297.28L1306.71,4297.28L1306.71,4297.25L1306.86,4297.25L1306.86,4297.21L1307.65,4297.21L1307.65,4297.18C1308.03,4297.18 1308.39,4297.2 1308.73,4297.25L1308.87,4297.25L1308.87,4297.28L1309.3,4297.28L1309.3,4297.3L1309.52,4297.3C1309.52,4297.31 1309.54,4297.32 1309.59,4297.33C1309.59,4297.34 1309.6,4297.35 1309.63,4297.36C1309.65,4297.37 1309.66,4297.38 1309.66,4297.39C1309.9,4297.41 1310.08,4297.44 1310.2,4297.47C1310.32,4297.49 1310.46,4297.52 1310.6,4297.55L1310.6,4297.58C1310.6,4297.59 1310.62,4297.59 1310.67,4297.59L1310.74,4297.59L1310.74,4297.62L1310.82,4297.62L1310.82,4297.68L1310.96,4297.68C1311.06,4297.71 1311.08,4297.76 1311.03,4297.83C1310.98,4297.9 1310.91,4297.94 1310.82,4297.96C1310.77,4298.01 1310.67,4298.03 1310.53,4298.03C1310.38,4298.02 1310.26,4298.03 1310.17,4298.05C1310.12,4298.06 1310.1,4298.07 1310.1,4298.09L1310.1,4298.12L1309.95,4298.12C1309.86,4298.14 1309.81,4298.16 1309.81,4298.17C1309.81,4298.18 1309.76,4298.18 1309.66,4298.18C1309.57,4298.18 1309.52,4298.19 1309.52,4298.2C1309.52,4298.21 1309.47,4298.21 1309.38,4298.21L1309.3,4298.21L1309.3,4298.23L1309.02,4298.23L1309.02,4298.26L1307.79,4298.26L1307.79,4298.23L1306.86,4298.23C1306.86,4298.2 1306.81,4298.18 1306.71,4298.18L1306.57,4298.18L1306.57,4298.15L1306.35,4298.15C1306.26,4298.13 1306.21,4298.12 1306.21,4298.11C1306.21,4298.1 1306.16,4298.09 1306.06,4298.09L1306.06,4298.08C1306.02,4298.07 1305.97,4298.06 1305.92,4298.06L1305.92,4298.02L1305.78,4298.02L1305.78,4297.96L1305.63,4297.96C1305.54,4297.85 1305.58,4297.76 1305.78,4297.68ZM1321.4,4295.38L1321.4,4295.32C1321.5,4295.32 1321.54,4295.32 1321.54,4295.31L1321.54,4295.27L1321.69,4295.27C1321.78,4295.26 1321.84,4295.24 1321.87,4295.23C1321.89,4295.22 1321.95,4295.22 1322.05,4295.22C1322.24,4295.2 1322.43,4295.18 1322.62,4295.15C1322.82,4295.12 1323.01,4295.11 1323.2,4295.1L1323.85,4295.1L1323.85,4295.07L1324.78,4295.07C1324.78,4295.09 1324.83,4295.1 1324.93,4295.11L1325.07,4295.11L1325.07,4295.14L1325.29,4295.14L1325.29,4295.19L1325.65,4295.19C1325.84,4295.19 1326.01,4295.22 1326.15,4295.27C1326.25,4295.31 1326.3,4295.36 1326.3,4295.45L1326.44,4295.45L1326.44,4295.51L1326.58,4295.51L1326.58,4295.59L1326.66,4295.59L1326.66,4295.61L1326.8,4295.61L1326.8,4295.64C1326.8,4295.66 1326.82,4295.67 1326.87,4295.67L1326.94,4295.67L1326.94,4295.7L1327.09,4295.7C1327.28,4295.7 1327.38,4295.75 1327.38,4295.84C1327.18,4295.84 1327.09,4295.86 1327.09,4295.91L1326.94,4295.91L1326.94,4295.93C1326.75,4295.93 1326.63,4295.93 1326.58,4295.95L1326.3,4295.95L1326.3,4295.98C1326.2,4296 1326.1,4296.01 1326.01,4296.01C1326.01,4296.03 1325.94,4296.06 1325.79,4296.09L1325.5,4296.15L1325.29,4296.18C1325.19,4296.18 1325.14,4296.19 1325.14,4296.2L1325.07,4296.2L1325.07,4296.22L1324.78,4296.22C1324.78,4296.23 1324.76,4296.23 1324.71,4296.23C1324.66,4296.24 1324.59,4296.25 1324.5,4296.25C1324.4,4296.25 1324.33,4296.26 1324.28,4296.28L1324.14,4296.28C1323.9,4296.3 1323.62,4296.3 1323.31,4296.29C1323,4296.28 1322.79,4296.28 1322.7,4296.28L1322.7,4296.25L1322.55,4296.22L1322.41,4296.22L1322.41,4296.2L1322.26,4296.2L1322.26,4296.19L1322.05,4296.15L1322.05,4296.12L1321.83,4296.12L1321.83,4296.06L1321.69,4296.06L1321.69,4296.04L1321.54,4296.04L1321.54,4296.01C1321.5,4295.99 1321.47,4295.98 1321.47,4295.98L1321.4,4295.98C1321.3,4295.95 1321.2,4295.93 1321.08,4295.9C1320.96,4295.87 1320.85,4295.83 1320.75,4295.78C1320.66,4295.74 1320.63,4295.69 1320.68,4295.62C1320.73,4295.56 1320.8,4295.5 1320.9,4295.45C1320.99,4295.44 1321.08,4295.43 1321.15,4295.42C1321.22,4295.41 1321.3,4295.4 1321.4,4295.38Z" style="fill-rule:nonzero;"/>
        </g>
    </g>
</svg>
