<?xml version="1.0" encoding="UTF-8" standalone="no"?>
<!DOCTYPE svg PUBLIC "-//W3C//DTD SVG 1.1//EN" "http://www.w3.org/Graphics/SVG/1.1/DTD/svg11.dtd">
<svg width="100%" height="100%" viewBox="0 0 512 512" version="1.1" xmlns="http://www.w3.org/2000/svg" xmlns:xlink="http://www.w3.org/1999/xlink" xml:space="preserve" xmlns:serif="http://www.serif.com/" style="fill-rule:evenodd;clip-rule:evenodd;stroke-linejoin:round;stroke-miterlimit:2;">
    <g transform="matrix(1,0,0,1,64,0)">
        <path d="M374.6,246.6C368.4,252.9 360.2,256 352,256C343.8,256 335.62,252.875 329.38,246.625L224,141.3L224,448C224,465.69 209.67,479.1 192.9,479.1C176.13,479.1 160,465.7 160,448L160,141.3L54.63,246.6C42.13,259.1 21.88,259.1 9.38,246.6C-3.12,234.1 -3.12,213.85 9.38,201.35L169.38,41.35C181.88,28.85 202.13,28.85 214.63,41.35L374.63,201.35C387.1,213.9 387.1,234.1 374.6,246.6Z" style="fill-rule:nonzero;"/>
    </g>
    <g transform="matrix(1.97514,-1.97514,1.97514,1.97514,-564.93,138.288)">
        <path d="M192.333,284.333L206.667,298.667L192.333,313L206.667,327.333L192.333,341.667L178,327.333L163.667,341.667L149.333,327.333L163.667,313L149.333,298.667L163.667,284.333L178,298.667L192.333,284.333Z"/>
    </g>
</svg>
