<?xml version="1.0" encoding="UTF-8" standalone="no"?>
<!DOCTYPE svg PUBLIC "-//W3C//DTD SVG 1.1//EN" "http://www.w3.org/Graphics/SVG/1.1/DTD/svg11.dtd">
<svg width="100%" height="100%" viewBox="0 0 512 512" version="1.1" xmlns="http://www.w3.org/2000/svg" xmlns:xlink="http://www.w3.org/1999/xlink" xml:space="preserve" xmlns:serif="http://www.serif.com/" style="fill-rule:evenodd;clip-rule:evenodd;stroke-linejoin:round;stroke-miterlimit:2;">
    <g transform="matrix(1,0,0,1,-32,0)">
        <path d="M256,32C256,14.33 270.3,0 288,0C429.4,0 544,114.6 544,256C544,302.6 531.5,346.4 509.7,384C500.9,399.3 481.3,404.6 465.1,395.7C450.7,386.9 445.5,367.3 454.3,351.1C470.6,323.8 480,291 480,255.1C480,149.1 394,63.1 288,63.1C270.3,63.1 256,49.67 256,31.1L256,32Z" style="fill-rule:nonzero;"/>
    </g>
    <g transform="matrix(1,0,0,1,-32,0)">
        <path d="M287.1,64C181.1,64 95.1,149.1 95.1,256C95.1,362 181.1,448 287.1,448C358.1,448 419.3,410.5 452.9,354.4L453,354.5C446.1,369.4 451.5,387.3 465.1,395.7C481.3,404.6 500.9,399.3 509.7,384C509.9,383.7 510.1,383.4 510.2,383.1C466.1,460.1 383.1,512 288,512C146.6,512 32,397.4 32,256C32,114.6 146.6,0 288,0C270.3,0 256,14.33 256,32C256,49.67 270.3,64 288,64L287.1,64Z" style="fill-opacity:0.4;fill-rule:nonzero;"/>
    </g>
</svg>
